<?xml version="1.0" encoding="UTF-8"?>
<svg width="16.3627902px" height="20px" viewBox="0 0 16.3627902 20" version="1.1" xmlns="http://www.w3.org/2000/svg" xmlns:xlink="http://www.w3.org/1999/xlink">
    <title>9DC3C81B-D913-4BA5-8770-D5017D0F2A0A</title>
    <g id="Design-Updtes---14th-May-2023-(Adding-page-and-downlaod-selection)" stroke="none" stroke-width="1" fill="none" fill-rule="evenodd" opacity="0.5">
        <g id="TAI-My-Translations-1" transform="translate(-1259.000000, -225.000000)" fill="#000000" fill-rule="nonzero">
            <g id="Group-10" transform="translate(80.000000, 155.000000)">
                <g id="Group-9" transform="translate(1143.000000, 18.000000)">
                    <g id="Group-8" transform="translate(0.000000, 52.000000)">
                        <g id="delete-(1)" transform="translate(36.000000, 0.000000)">
                            <path d="M14.5447024,5.45426339 C14.0426513,5.45426339 13.6356585,5.86125621 13.6356585,6.36330729 L13.6356585,16.5364176 C13.5813793,17.4932548 12.7657289,18.2273402 11.8084802,18.180878 L4.55430993,18.180878 C3.59706131,18.2273402 2.78141087,17.4932548 2.7271317,16.5364176 L2.7271317,6.36330729 C2.72713168,5.86125622 2.32013887,5.45426339 1.8180878,5.45426339 C1.31603673,5.45426339 0.909043899,5.86125622 0.909043899,6.36330729 L0.909043899,16.5364176 C0.963066699,18.4975984 2.59294378,20.0457784 4.55430993,19.9989658 L11.8084802,19.9989658 C13.7698464,20.0457784 15.3997235,18.4975984 15.4537463,16.5364176 L15.4537463,6.36330729 C15.4537463,5.86125621 15.0467535,5.45426339 14.5447024,5.45426339 Z" id="Path"></path>
                            <path d="M15.4537463,2.7271317 L11.8175707,2.7271317 L11.8175707,0.909043899 C11.8175707,0.406992817 11.4105779,0 10.9085268,0 L5.45426339,0 C4.95221231,0 4.5452195,0.406992817 4.5452195,0.909043899 L4.5452195,2.7271317 L0.909043899,2.7271317 C0.406992817,2.7271317 0,3.13412451 0,3.6361756 C0,4.13822668 0.406992817,4.5452195 0.909043899,4.5452195 L15.4537463,4.5452195 C15.9557974,4.5452195 16.3627902,4.13822668 16.3627902,3.6361756 C16.3627902,3.13412451 15.9557974,2.7271317 15.4537463,2.7271317 Z M6.36330729,2.7271317 L6.36330729,1.8180878 L9.99948289,1.8180878 L9.99948289,2.7271317 L6.36330729,2.7271317 Z" id="Shape"></path>
                            <path d="M7.27235119,14.5447024 L7.27235119,8.18139509 C7.27235119,7.67934401 6.86535838,7.27235119 6.36330729,7.27235119 C5.86125621,7.27235119 5.45426339,7.67934401 5.45426339,8.18139509 L5.45426339,14.5447024 C5.45426339,15.0467535 5.86125621,15.4537463 6.36330729,15.4537463 C6.86535838,15.4537463 7.27235119,15.0467535 7.27235119,14.5447024 Z" id="Path"></path>
                            <path d="M10.9085268,14.5447024 L10.9085268,8.18139509 C10.9085268,7.67934401 10.501534,7.27235119 9.99948289,7.27235119 C9.49743181,7.27235119 9.09043899,7.67934401 9.09043899,8.18139509 L9.09043899,14.5447024 C9.09043899,15.0467535 9.49743181,15.4537463 9.99948289,15.4537463 C10.501534,15.4537463 10.9085268,15.0467535 10.9085268,14.5447024 Z" id="Path"></path>
                        </g>
                    </g>
                </g>
            </g>
        </g>
    </g>
</svg>