<?xml version="1.0" encoding="UTF-8"?>
<svg width="18.75px" height="20px" viewBox="0 0 18.75 20" version="1.1" xmlns="http://www.w3.org/2000/svg" xmlns:xlink="http://www.w3.org/1999/xlink">
    <title>FB32BBE8-66CC-40A1-B701-6C2AF83473C0</title>
    <g id="Design-Updtes---14th-May-2023-(Adding-page-and-downlaod-selection)" stroke="none" stroke-width="1" fill="none" fill-rule="evenodd" opacity="0.5">
        <g id="TAI-My-Translations-1" transform="translate(-1223.000000, -225.000000)" fill="#000000" fill-rule="nonzero">
            <g id="Group-10" transform="translate(80.000000, 155.000000)">
                <g id="Group-9" transform="translate(1143.000000, 18.000000)">
                    <g id="download-(1)" transform="translate(0.000000, 52.000000)">
                        <path d="M14.31875,9.11625 C14.2175,8.8925 13.995,8.75 13.75,8.75 L11.25,8.75 L11.25,0.625 C11.25,0.28 10.97,0 10.625,0 L8.125,0 C7.78,0 7.5,0.28 7.5,0.625 L7.5,8.75 L5,8.75 C4.755,8.75 4.5325,8.89375 4.43125,9.11625 C4.32875,9.34 4.36875,9.60125 4.53,9.78625 L8.905,14.78625 C9.02375,14.9225 9.195,15 9.375,15 C9.555,15 9.72625,14.92125 9.845,14.78625 L14.22,9.78625 C14.3825,9.6025 14.42,9.34 14.31875,9.11625 Z" id="Path"></path>
                        <path d="M16.25,13.75 L16.25,17.5 L2.5,17.5 L2.5,13.75 L0,13.75 L0,18.75 C0,19.44125 0.56,20 1.25,20 L17.5,20 C18.19125,20 18.75,19.44125 18.75,18.75 L18.75,13.75 L16.25,13.75 Z" id="Path"></path>
                    </g>
                </g>
            </g>
        </g>
    </g>
</svg>